HIERARCHY
ROOT Hips
{
	OFFSET 0.000000 0.000000 0.000000
	CHANNELS 6 Xposition Yposition Zposition Xrotation Yrotation Zrotation
	JOINT LeftUpLeg_virtual
	{
		OFFSET 0.000000 0.000000 0.000000
		CHANNELS 3 Xrotation Yrotation Zrotation
		JOINT LeftUpLeg
		{
			OFFSET 11.394100 -6.187798 -0.413800
			CHANNELS 3 Xrotation Yrotation Zrotation
			JOINT LeftLeg
			{
				OFFSET 0.430247 -32.302673 3.732800
				CHANNELS 3 Xrotation Yrotation Zrotation
				JOINT LeftFoot
				{
					OFFSET -0.430247 -48.264931 -6.423300
					CHANNELS 3 Xrotation Yrotation Zrotation
					JOINT LeftToeBase
					{
						OFFSET 4.230900 -16.068199 23.438400
						CHANNELS 3 Xrotation Yrotation Zrotation
						JOINT LeftToe_End
						{
							OFFSET 4.510700 0.695400 19.974600
							CHANNELS 3 Xrotation Yrotation Zrotation
							End Site
							{
								OFFSET 0 0 0
							}
						}
					}
				}
			}
		}
	}
	JOINT RightUpLeg_virtual
	{
		OFFSET 0.000000 0.000000 0.000000
		CHANNELS 3 Xrotation Yrotation Zrotation
		JOINT RightUpLeg
		{
			OFFSET -11.333700 -6.187798 -0.413800
			CHANNELS 3 Xrotation Yrotation Zrotation
			JOINT RightLeg
			{
				OFFSET -0.430392 -32.302628 3.733000
				CHANNELS 3 Xrotation Yrotation Zrotation
				JOINT RightFoot
				{
					OFFSET 0.430392 -48.264973 -6.423500
					CHANNELS 3 Xrotation Yrotation Zrotation
					JOINT RightToeBase
					{
						OFFSET -4.230900 -16.068199 23.438400
						CHANNELS 3 Xrotation Yrotation Zrotation
						JOINT RightToe_End
						{
							OFFSET -4.510700 0.695400 19.974600
							CHANNELS 3 Xrotation Yrotation Zrotation
							End Site
							{
								OFFSET 0 0 0
							}
						}
					}
				}
			}
		}
	}
	JOINT Spine_virtual
	{
		OFFSET 0.000000 0.000000 0.000000
		CHANNELS 3 Xrotation Yrotation Zrotation
		JOINT Spine
		{
			OFFSET -0.002400 12.777504 0.315300
			CHANNELS 3 Xrotation Yrotation Zrotation
			JOINT Spine1
			{
				OFFSET -0.002067 5.816869 0.032633
				CHANNELS 3 Xrotation Yrotation Zrotation
				JOINT Spine1_split
				{
					OFFSET -0.002067 5.816869 0.032633
					CHANNELS 3 Xrotation Yrotation Zrotation
					JOINT Spine2
					{
						OFFSET -0.002067 5.816869 0.032633
						CHANNELS 3 Xrotation Yrotation Zrotation
						JOINT Neck_virtual
						{
							OFFSET 0.000000 0.000000 0.000000
							CHANNELS 3 Xrotation Yrotation Zrotation
							JOINT Neck
							{
								OFFSET -0.003700 21.199493 -0.826900
								CHANNELS 3 Xrotation Yrotation Zrotation
								JOINT Head
								{
									OFFSET 0.000000 20.442200 4.834800
									CHANNELS 3 Xrotation Yrotation Zrotation
									JOINT HeadTop_End
									{
										OFFSET 0.000000 34.668396 4.968400
										CHANNELS 3 Xrotation Yrotation Zrotation
										End Site
										{
											OFFSET 0 0 0
										}
									}
								}
							}
						}
						JOINT LeftShoulder_virtual
						{
							OFFSET 0.000000 0.000000 0.000000
							CHANNELS 3 Xrotation Yrotation Zrotation
							JOINT LeftShoulder
							{
								OFFSET 3.288150 8.794197 -1.372250
								CHANNELS 3 Xrotation Yrotation Zrotation
								JOINT LeftShoulder_split
								{
									OFFSET 3.288150 8.794197 -1.372250
									CHANNELS 3 Xrotation Yrotation Zrotation
									JOINT LeftArm
									{
										OFFSET 11.953299 -2.279007 -0.146200
										CHANNELS 3 Xrotation Yrotation Zrotation
										JOINT LeftForeArm
										{
											OFFSET 18.448900 0.000000 0.000000
											CHANNELS 3 Xrotation Yrotation Zrotation
											JOINT LeftHand
											{
												OFFSET 29.527798 0.000000 0.000000
												CHANNELS 3 Xrotation Yrotation Zrotation
												End Site
												{
													OFFSET 0 0 0
												}
											}
										}
									}
								}
							}
						}
						JOINT RightShoulder_virtual
						{
							OFFSET 0.000000 0.000000 0.000000
							CHANNELS 3 Xrotation Yrotation Zrotation
							JOINT RightShoulder
							{
								OFFSET -3.249400 8.794197 -1.372250
								CHANNELS 3 Xrotation Yrotation Zrotation
								JOINT RightShoulder_split
								{
									OFFSET -3.249400 8.794197 -1.372250
									CHANNELS 3 Xrotation Yrotation Zrotation
									JOINT RightArm
									{
										OFFSET -11.953299 -2.279007 -0.146200
										CHANNELS 3 Xrotation Yrotation Zrotation
										JOINT RightForeArm
										{
											OFFSET -18.448900 0.000000 0.000000
											CHANNELS 3 Xrotation Yrotation Zrotation
											JOINT RightHand
											{
												OFFSET -29.527802 0.000000 0.000000
												CHANNELS 3 Xrotation Yrotation Zrotation
												End Site
												{
													OFFSET 0 0 0
												}
											}
										}
									}
								}
							}
						}
					}
				}
			}
		}
	}
}
MOTION
Frames: 7
Frame Time: 0.03333333
102.425919 92.687843 194.715424 0.000000 0.000000 0.000000 -111.072762 -62.950575 -176.339734 -60.043326 -5.619341 30.184337 90.014353 -5.699643 -6.429449 15.567155 -10.165749 0.395045 -2.807442 -0.173110 -5.898685 0.000000 0.000000 0.000000 -86.660422 -69.413273 -157.498684 -66.955778 -4.270944 -45.438257 47.425900 6.799609 -7.287372 17.321491 -1.027536 10.363356 9.035882 0.463953 -5.530242 0.000000 0.000000 0.000000 -112.193247 -62.415956 -175.711671 15.557982 4.411727 3.290434 -2.490795 1.610880 6.902588 0.325099 1.519017 1.539680 0.000000 0.000000 0.000000 0.700079 1.640902 5.676627 20.126469 5.298432 11.426291 14.603527 37.761763 -19.314317 0.000000 0.000000 0.000000 0.254710 1.470286 6.446308 1.880427 -11.097556 10.891317 3.396602 1.706479 1.363287 1.302012 12.821969 -1.685879 3.847709 -35.286799 -0.548068 0.000000 0.000000 0.000000 -1.471482 2.088642 6.275989 1.885148 4.765659 17.275169 -0.388817 -1.400957 -0.391928 -21.936696 21.923500 16.298170 2.483957 20.921155 -2.480991 0.000000 0.000000 0.000000 
109.163757 86.281471 205.421371 0.000000 0.000000 0.000000 -110.809164 -59.587328 -176.475040 -60.171036 -5.096892 27.082907 89.397921 -3.223211 -5.313113 19.424870 -7.430855 0.373050 -0.532758 -0.469824 -5.084374 0.000000 0.000000 0.000000 -91.952617 -65.065857 -163.496287 -65.352923 -4.536675 -41.893952 41.052108 5.201370 -7.022604 23.936224 -2.905186 8.517614 7.728879 -0.113515 -2.329477 0.000000 0.000000 0.000000 -113.508189 -58.697157 -178.471026 16.208254 4.480744 2.863135 -1.760401 2.498804 6.203696 0.183778 1.148458 2.030490 0.000000 0.000000 0.000000 0.730351 2.529916 4.804824 20.215717 5.264099 9.231682 14.225658 34.941496 -18.466081 0.000000 0.000000 0.000000 0.507410 2.287894 5.409181 2.138251 -10.408547 9.821798 1.819270 2.535274 1.207907 -1.302244 17.691976 -0.701469 4.144845 -36.187524 -0.412605 0.000000 0.000000 0.000000 -1.323135 3.061774 5.423782 1.567415 7.051501 19.013631 -0.830086 -3.277017 -0.307252 -23.695912 22.056124 18.967790 2.980844 27.504093 -2.293293 0.000000 0.000000 0.000000 
116.001999 77.229439 217.256302 0.000000 0.000000 0.000000 -112.124290 -52.995871 -177.402266 -59.589398 -3.377463 25.191232 86.793912 -0.159259 -3.965959 21.204589 -3.321457 -1.862858 1.895295 -0.564911 -3.779744 0.000000 0.000000 0.000000 -99.894481 -58.203443 -171.867340 -66.620941 -0.008282 -35.665902 36.052645 3.856680 -7.425382 30.439780 -2.721914 9.234165 6.137127 -1.023445 0.440392 0.000000 0.000000 0.000000 -113.897188 -52.873758 -179.393812 17.087499 4.114386 2.389648 -0.887292 3.303615 5.911124 0.628687 0.626852 2.192103 0.000000 0.000000 0.000000 0.714062 3.424477 4.462547 19.367077 4.885448 7.297054 13.360928 31.823306 -17.371775 0.000000 0.000000 0.000000 0.755055 3.113183 4.999041 2.273161 -8.369083 8.062897 1.198044 3.506224 0.130404 -4.483889 23.150397 -0.233345 3.685536 -43.195855 -0.638578 0.000000 0.000000 0.000000 -1.224596 3.962413 5.163022 1.325329 8.459194 20.214553 -1.118433 -3.972034 0.238912 -26.387475 20.667722 22.576311 2.886122 36.477681 -1.607208 0.000000 0.000000 0.000000 
122.803253 65.631294 229.498489 0.000000 0.000000 0.000000 -114.578028 -43.245541 -178.842930 -58.921419 0.109375 25.446013 82.410979 2.052401 -2.306709 20.480811 0.591353 -5.840763 3.179714 -0.582730 -1.646683 0.000000 0.000000 0.000000 -106.715183 -48.779415 -179.173689 -72.756275 7.458970 -26.552979 33.995890 3.429008 -8.361632 35.219894 0.086956 12.239452 4.510796 -1.970184 1.444713 0.000000 0.000000 0.000000 -113.904995 -45.143910 -179.596518 18.085561 3.070151 1.867442 0.064371 3.798363 6.124472 0.890532 -1.120684 2.113564 0.000000 0.000000 0.000000 0.770145 4.124948 4.716525 18.206709 4.175274 5.912248 12.076481 28.289728 -16.059979 0.000000 0.000000 0.000000 1.016621 3.813083 5.310508 2.468900 -5.990960 5.543867 1.901184 4.014217 -1.366646 -6.581887 27.571003 -0.985751 2.884065 -54.705676 -1.177339 0.000000 0.000000 0.000000 -1.089234 4.647807 5.613286 1.293429 8.538019 20.841065 -1.379663 -3.338320 0.711541 -28.954213 18.143786 26.851810 1.803300 46.570221 -0.201217 0.000000 0.000000 0.000000 
129.646988 53.258976 241.372635 0.000000 0.000000 0.000000 -116.907007 -31.944122 179.739228 -60.035915 5.178059 28.773698 77.897481 2.521783 -1.152283 18.115180 3.679040 -9.961471 3.399466 -0.462011 0.988831 0.000000 0.000000 0.000000 -110.999078 -37.640592 176.113641 -84.683588 13.903036 -14.530184 36.821635 3.385747 -9.359798 37.071562 4.087555 15.815446 3.597020 -2.623782 0.739080 0.000000 0.000000 0.000000 -113.801238 -35.796916 -179.485610 19.004723 1.445461 1.405129 0.986621 3.958568 6.664607 1.141030 -2.899403 1.923633 0.000000 0.000000 0.000000 0.916017 4.517190 5.326157 17.561624 3.043678 5.372403 11.156232 24.329417 -14.841608 0.000000 0.000000 0.000000 1.363241 4.201218 6.032779 2.889333 -4.029109 2.325461 3.700872 3.385422 -2.453213 -6.808399 28.327752 -2.999137 3.175479 -65.536041 -1.102025 0.000000 0.000000 0.000000 -0.706897 5.043238 6.441905 1.450413 6.961226 21.322512 -1.646631 -2.129962 0.936686 -30.352654 15.522197 31.193136 -0.468602 55.881773 1.947303 0.000000 0.000000 0.000000 
136.552521 42.244862 252.498672 0.000000 0.000000 0.000000 -118.260600 -20.849866 178.330270 -62.876399 10.463285 35.526683 75.392427 1.587965 -1.600328 15.383263 6.004876 -12.302922 3.647283 -0.227030 3.202129 0.000000 0.000000 0.000000 -112.231954 -26.857494 173.383519 -98.936943 15.381670 -1.814500 44.321224 2.858557 -9.950585 35.647901 7.504878 18.225718 3.969976 -2.842779 -0.891759 0.000000 0.000000 0.000000 -113.317968 -26.202009 -179.080935 19.477434 -0.570270 1.076516 1.750644 3.831665 7.127331 1.093578 -4.912521 1.410615 0.000000 0.000000 0.000000 1.164863 4.576581 5.864241 17.868241 1.888679 5.760952 11.166402 20.075365 -13.775348 0.000000 0.000000 0.000000 1.858700 4.299178 6.584533 3.550503 -3.419119 -1.216633 5.376408 2.045843 -2.620955 -4.519575 25.122153 -5.942618 5.600445 -71.453682 0.882831 0.000000 0.000000 0.000000 -0.044475 5.121668 7.148641 1.713967 3.696092 22.009042 -1.583190 -0.285761 0.523853 -30.294508 13.716244 34.837708 -3.615584 62.998810 4.564261 0.000000 0.000000 0.000000 
143.272507 34.468414 261.751160 0.000000 0.000000 0.000000 -118.295530 -12.193422 176.857394 -66.235445 14.205068 44.235041 75.540690 0.329880 -4.001150 12.786299 8.036138 -11.135566 4.853834 0.221633 3.963255 0.000000 0.000000 0.000000 -111.067236 -17.902192 172.224750 -110.207513 11.846992 7.508236 55.597962 1.221868 -9.370453 32.469879 9.078014 17.897421 4.481470 -2.666312 -1.967956 0.000000 0.000000 0.000000 -112.985577 -17.533615 -179.448180 19.005131 -2.541252 1.020755 2.205783 3.603441 7.088261 0.722147 -7.473188 0.801047 0.000000 0.000000 0.000000 1.518401 4.399428 5.874114 19.007493 0.672534 6.755771 12.209942 15.685219 -12.809788 0.000000 0.000000 0.000000 2.363450 4.156455 6.459239 4.340428 -4.319559 -4.190202 6.334653 0.496401 -2.047747 -0.413329 18.259635 -8.258947 8.549051 -72.605013 3.577514 0.000000 0.000000 0.000000 0.806541 5.063165 7.248746 2.202447 -1.075220 22.954213 -1.725989 1.043520 -0.410690 -29.330929 13.107243 37.021357 -6.376386 67.089096 6.411671 0.000000 0.000000 0.000000 
